<svg width="122" height="37" viewBox="0 0 122 37" fill="none" xmlns="http://www.w3.org/2000/svg">
<g clip-path="url(#clip0_183_10)">
<path fill-rule="evenodd" clip-rule="evenodd" d="M0 37H122V4.48585H0V37Z" fill="#FFB300"/>
<path d="M21.2392 16.6481C22.6941 17.0602 24.0059 17.6642 25.1061 18.4082C27.3097 19.8993 28.6729 21.9646 28.6729 24.2312C28.6729 26.5198 27.3191 28.5772 25.128 30.0604C24.0247 30.8076 22.7064 31.4084 21.2428 31.819V32.3286H18.603C17.969 32.3978 17.3192 32.4355 16.6564 32.4355C15.9931 32.4355 15.3427 32.3978 14.7081 32.3286H12.3184V31.8882C10.7422 31.4761 9.32399 30.8485 8.14582 30.0542C5.94504 28.5725 4.57812 26.5166 4.57812 24.2312C4.57812 21.9677 5.95427 19.9056 8.1685 18.4145C9.34777 17.6186 10.7668 16.9863 12.3422 16.5726C13.058 9.56992 18.1787 8.59312 21.1805 8.34774V12.645L21.2392 16.6481Z" fill="#000099"/>
<path d="M101.377 30.7084V9.71772H106.618L106.839 10.0685L113.462 20.5945V9.71772H118.793V30.7084H113.489L113.268 30.3577L106.768 20.0188V30.7084H101.377ZM81.5443 9.71772H86.8749V21.1167C86.8749 22.7384 86.9297 23.7372 87.0377 24.1745L87.0517 24.2437C87.0956 24.5347 87.1973 24.7942 87.3491 25.0254C87.5087 25.2708 87.7263 25.4863 87.9923 25.6813C88.5432 26.084 89.3273 26.2853 90.3446 26.2853C90.8611 26.2853 91.3165 26.235 91.7046 26.1469C92.0724 26.062 92.3807 25.9472 92.6265 25.8088C93.0318 25.4376 93.3417 25.0349 93.3824 24.5426L93.3965 24.4576C93.4497 24.1886 93.4919 23.7891 93.5217 23.2685C93.553 22.7148 93.5686 22.0573 93.5686 21.3023V9.71772H98.9602V20.8037C98.9602 23.1662 98.8287 24.9106 98.5643 25.9692L98.5736 25.933C98.4688 26.4552 98.2951 26.9633 98.0697 27.4305V27.4336C97.8428 27.8992 97.5611 28.3286 97.2418 28.6904C96.9178 29.0867 96.5219 29.4485 96.0633 29.7631C95.6251 30.0651 95.1243 30.3262 94.5703 30.5338L94.5327 30.548C93.4716 30.8814 92.1585 31.0812 90.4698 31.0812C88.4744 31.0812 86.9031 30.8799 85.8811 30.4756C85.2832 30.2649 84.7699 29.9786 84.3254 29.6483C83.8809 29.318 83.5132 28.9483 83.2001 28.5645C82.8777 28.1697 82.5898 27.7466 82.3644 27.3062C82.1531 26.8941 81.9998 26.4678 81.9278 26.0353C81.9278 26.0353 81.9278 26.0353 81.9278 26.0337C81.7963 25.4265 81.6993 24.7061 81.6382 23.8788C81.5756 23.0451 81.5443 22.0589 81.5443 20.9295V9.71772ZM69.2117 30.7084V14.5749H63.385V9.71772H80.3674V14.5749H74.5407V30.7084H69.2117ZM48.0162 20.1808C48.0162 21.2614 48.1289 22.1863 48.3637 22.9633C48.5859 23.701 48.9161 24.3035 49.3622 24.7785L49.3762 24.7895C49.8254 25.2944 50.3356 25.6656 50.899 25.9094C51.4828 26.1627 52.1354 26.2853 52.8491 26.2853C54.2498 26.2853 55.4799 25.8088 56.3235 24.8556L56.3079 24.8697C56.743 24.3507 57.0841 23.7199 57.3158 22.9681C57.5568 22.1863 57.6835 21.2614 57.6835 20.1808C57.6835 19.1254 57.5599 18.2147 57.3267 17.4455C57.0951 16.6826 56.757 16.0598 56.3235 15.5706C55.8931 15.1144 55.3798 14.7526 54.7945 14.5073C54.2217 14.2682 53.5721 14.1392 52.8491 14.1392C52.1307 14.1392 51.4812 14.2682 50.899 14.5073C50.3075 14.7511 49.7769 15.1144 49.3121 15.5753C48.8895 16.0865 48.5703 16.7062 48.3558 17.4408C48.1289 18.2162 48.0162 19.127 48.0162 20.1808ZM42.6231 20.3067C42.6231 19.3377 42.7013 18.4018 42.8406 17.5242C42.9877 16.5993 43.2068 15.7515 43.476 15.0075L43.5183 14.9099C43.7843 14.4113 44.0785 13.9174 44.4103 13.4455C44.7546 12.9564 45.1381 12.4861 45.5685 12.0535L45.5481 12.0771C45.9504 11.6382 46.3745 11.2482 46.8252 10.9147C47.2838 10.575 47.7721 10.295 48.2979 10.0842C48.9819 9.80893 49.7174 9.58716 50.4953 9.43773H50.4984C51.2324 9.29616 51.9977 9.2191 52.7881 9.2191C54.3093 9.2191 55.7038 9.47076 56.9448 9.96623C58.2 10.4648 59.2971 11.212 60.2095 12.1982L60.2017 12.1904C61.1486 13.175 61.8732 14.3641 62.3583 15.7357C62.831 17.0727 63.0751 18.5812 63.0751 20.2437C63.0751 21.911 62.8451 23.4085 62.3912 24.7423C61.9327 26.0934 61.2456 27.2716 60.3426 28.2798L60.3175 28.3097C59.3832 29.2472 58.2861 29.9377 57.0403 30.3954C55.7804 30.8594 54.3781 31.0812 52.8491 31.0812C51.3216 31.0812 49.9177 30.8594 48.6594 30.3954C47.4137 29.9377 46.3166 29.2472 45.3822 28.3097L45.3744 28.2971C44.4291 27.314 43.7374 26.1469 43.2835 24.7942C42.839 23.4667 42.6231 21.9708 42.6231 20.3067ZM32.7695 32.2656H32.2186L32.0574 31.734L30.9415 28.0596L30.6426 27.0702L31.6708 27.0954C32.8258 27.1237 33.527 27.0435 33.998 26.9019C34.405 26.7793 34.6554 26.5889 34.9073 26.3876L34.8839 26.4112C35.0247 26.2869 35.1484 26.062 35.247 25.7112C35.3675 25.2787 35.4348 24.692 35.4348 23.9197V9.77906H40.95V23.6696C40.95 24.5536 40.9171 25.3573 40.8436 26.0651C40.7669 26.7981 40.6464 27.4179 40.4727 27.907L40.4695 27.9133C40.2317 28.5629 39.9202 29.2031 39.4976 29.7694C39.061 30.3545 38.5117 30.8516 37.8136 31.1882C37.2393 31.4917 36.5804 31.7623 35.7587 31.9573C34.9449 32.1492 33.9746 32.2656 32.7695 32.2656Z" fill="#000099"/>
<path fill-rule="evenodd" clip-rule="evenodd" d="M0 4.54688H122V-0.00048768H0V4.54688Z" fill="#FF0000"/>
<path fill-rule="evenodd" clip-rule="evenodd" d="M16.8417 11.2116C17.2757 11.2116 17.5851 11.523 17.5851 11.8973C17.5851 12.333 17.2757 12.6445 16.8417 12.6445C16.47 12.6445 16.0983 12.333 16.0983 11.8973C16.0983 11.523 16.47 11.2116 16.8417 11.2116ZM16.8417 11.7102C16.9658 11.7102 17.0275 11.7731 17.0275 11.8973C17.0275 12.0216 16.9658 12.1459 16.8417 12.1459C16.7176 12.1459 16.5935 12.0216 16.5935 11.8973C16.5935 11.7731 16.7176 11.7102 16.8417 11.7102ZM7.66284 19.3719C6.40971 20.4022 5.54032 21.6463 5.209 23.0006H8.16053C8.38058 21.6573 8.9382 20.4195 9.74765 19.3719H7.66284ZM5.11666 23.4662C5.07816 23.7179 5.05859 23.9727 5.05859 24.2307C5.05859 25.2719 5.3691 26.266 5.92971 27.1736H8.59405C8.24613 26.2755 8.05535 25.305 8.05535 24.292C8.05535 24.0136 8.07007 23.7383 8.09824 23.4662H5.11666ZM6.24585 27.6392C6.80394 28.3958 7.54062 29.0831 8.41971 29.6761C9.50554 30.4075 10.8064 30.9942 12.2517 31.3906C11.6507 31.0446 11.0963 30.6325 10.6017 30.1606C9.84609 29.4402 9.22915 28.5861 8.7914 27.6392H6.24585ZM21.2422 30.7725C21.6995 30.4815 22.1256 30.1496 22.5125 29.78C23.1636 29.1587 23.7063 28.4367 24.1101 27.6392H21.2422V30.7725ZM12.3178 27.6392H9.20223C9.6057 28.4367 10.1474 29.1587 10.799 29.78C11.2553 30.2157 11.765 30.5979 12.3178 30.9235V27.6392ZM21.2422 31.3356C22.6 30.9408 23.8237 30.3777 24.852 29.6809C25.7284 29.0879 26.4624 28.3989 27.0164 27.6392H24.5202C24.0835 28.5861 23.4653 29.4402 22.7094 30.1606C22.2656 30.5837 21.7735 30.9581 21.2422 31.2821V31.3356ZM27.3294 27.1736C27.8835 26.266 28.1902 25.2719 28.1902 24.2307C28.1902 23.9727 28.1714 23.7179 28.1339 23.4662H25.2135C25.2417 23.7383 25.2557 24.0136 25.2557 24.292C25.2557 25.305 25.0664 26.2755 24.7189 27.1736H27.3294ZM28.0415 23.0006C27.7144 21.6463 26.8537 20.4022 25.611 19.3719H23.5639C24.3731 20.4195 24.9318 21.6573 25.1525 23.0006H28.0415ZM10.2593 19.3719C9.37219 20.399 8.75603 21.6416 8.51329 23.0006H12.3178V19.3719H10.2593ZM21.2422 23.0006H24.7987C24.5562 21.6416 23.9395 20.399 23.0529 19.3719H21.2422V23.0006ZM8.44537 23.4662C8.41485 23.7383 8.39842 24.0136 8.39842 24.292C8.39842 25.3081 8.60751 26.2802 8.98594 27.1736H12.3178V23.4662H8.44537ZM21.2422 27.1736H24.3261C24.7048 26.2802 24.913 25.3081 24.913 24.292C24.913 24.0136 24.8973 23.7383 24.8676 23.4662H21.2422V27.1736Z" fill="white"/>
<path fill-rule="evenodd" clip-rule="evenodd" d="M16.7805 17.0044C18.8256 17.0044 20.4988 20.3674 20.4988 24.479C20.4988 28.5277 18.8256 31.8906 16.7805 31.8906C14.6732 31.8906 13 28.5277 13 24.479C13 20.3674 14.6732 17.0044 16.7805 17.0044Z" fill="white"/>
</g>
<defs>
<clipPath id="clip0_183_10">
<rect width="122" height="37" fill="white"/>
</clipPath>
</defs>
</svg>
