<svg width="129" height="129" viewBox="0 0 129 129" fill="none" xmlns="http://www.w3.org/2000/svg">
<path d="M64.5 8.0625C79.4682 8.0625 93.8233 14.0086 104.407 24.5927C114.991 35.1767 120.938 49.5318 120.938 64.5C120.938 79.4682 114.991 93.8233 104.407 104.407C93.8233 114.991 79.4682 120.938 64.5 120.938C49.5318 120.938 35.1767 114.991 24.5927 104.407C14.0086 93.8233 8.0625 79.4682 8.0625 64.5C8.0625 49.5318 14.0086 35.1767 24.5927 24.5927C35.1767 14.0086 49.5318 8.0625 64.5 8.0625V8.0625ZM57.4695 75.6343L44.9323 63.0891C44.4829 62.6396 43.9493 62.2831 43.362 62.0398C42.7748 61.7966 42.1454 61.6714 41.5098 61.6714C40.8742 61.6714 40.2448 61.7966 39.6575 62.0398C39.0703 62.2831 38.5367 62.6396 38.0872 63.0891C37.1795 63.9968 36.6696 65.2279 36.6696 66.5116C36.6696 67.7953 37.1795 69.0264 38.0872 69.9341L54.051 85.8979C54.4992 86.3496 55.0324 86.7081 55.6198 86.9528C56.2072 87.1974 56.8372 87.3234 57.4735 87.3234C58.1099 87.3234 58.7399 87.1974 59.3273 86.9528C59.9147 86.7081 60.4479 86.3496 60.8961 85.8979L93.9523 52.8336C94.4078 52.386 94.7701 51.8526 95.0184 51.2643C95.2667 50.676 95.3961 50.0443 95.3991 49.4058C95.402 48.7672 95.2785 48.1344 95.0357 47.5437C94.7929 46.9531 94.4355 46.4165 93.9843 45.9647C93.533 45.5128 92.9967 45.1549 92.4064 44.9113C91.8161 44.6678 91.1834 44.5436 90.5448 44.5458C89.9062 44.548 89.2744 44.6766 88.6858 44.9243C88.0972 45.1719 87.5634 45.5336 87.1153 45.9885L57.4695 75.6343Z" fill="#F8AF00"/>
</svg>
